# xmcd CD database file
#
# Track frame offsets:
#	150
#	29045
#	47195
#	75907
#	96472
#	115897
#	131892
#	147452
#	163000
#	177792
#
# Disc length: 2575 seconds
#
# Revision: 0
# Processed by: cddbd v1.5.1PL0 Copyright (c) Steve Scherf et al.
# Submitted via: CDex 1.50
#
DISCID=8d0a0d0a
DTITLE=Salsa merengue - Gruppo fuego
DYEAR=2000
DGENRE=Salsa
TTITLE0=La ribelion
TTITLE1=Arrepentida
TTITLE2=El preso
TTITLE3=Corazon espinado
TTITLE4=El swing
TTITLE5=Llorarms
TTITLE6=Como voy a olvidarte
TTITLE7=Para no verte mas
TTITLE8=La banana
TTITLE9=Mentirosa
EXTD=YEAR: 2000
EXTT0=
EXTT1=
EXTT2=
EXTT3=
EXTT4=
EXTT5=
EXTT6=
EXTT7=
EXTT8=
EXTT9=
PLAYORDER=
